<svg width="120" height="21" viewBox="0 0 120 21" fill="none" xmlns="http://www.w3.org/2000/svg">
<g clip-path="url(#clip0_703_20384)">
<path d="M28.103 7.38685C28.6849 7.38156 29.2572 7.53492 29.7584 7.83044C30.2568 8.11851 30.6707 8.53248 30.9588 9.03085C31.2544 9.53207 31.4077 10.1043 31.4024 10.6862C31.403 11.0395 31.3474 11.3907 31.2378 11.7266C31.1328 12.0555 30.9736 12.3646 30.7667 12.6412C30.564 12.9102 30.3247 13.1495 30.0557 13.3522C29.7795 13.5602 29.4704 13.7202 29.1411 13.8255C28.8045 13.9353 28.4525 13.9909 28.0984 13.9901H26.7037V12.8469H28.0984C28.3315 12.8481 28.5632 12.811 28.7844 12.7372C28.9993 12.6693 29.2005 12.564 29.3788 12.4262C29.5503 12.2941 29.7041 12.1404 29.8361 11.9689C29.9722 11.7903 30.0773 11.5901 30.1471 11.3767C30.2198 11.1554 30.2561 10.9237 30.2546 10.6908C30.2552 10.4072 30.1997 10.1262 30.0915 9.86407C29.9832 9.60197 29.8243 9.3638 29.6237 9.16326C29.4232 8.96265 29.185 8.80373 28.9228 8.69546C28.6607 8.58719 28.3798 8.5318 28.0961 8.53241H26.7014V7.38916L28.103 7.38685Z" fill="white"/>
<path d="M38.0397 8.52991H33.3914V7.38672H38.0397V8.52991ZM37.2577 11.2736H33.3914V10.1076H37.2577V11.2736ZM38.0397 13.9945H33.3914V12.8513H38.0397V13.9945Z" fill="white"/>
<path d="M41.1699 12.849H44.6751V13.9922H40.0291V7.38672H41.1722L41.1699 12.849Z" fill="white"/>
<path d="M49.3804 7.38896C49.6342 7.38896 49.8854 7.43899 50.1198 7.53607C50.3542 7.63316 50.5672 7.77546 50.7466 7.95485C50.926 8.13424 51.0684 8.34726 51.1655 8.5817C51.2625 8.81607 51.3125 9.06733 51.3125 9.32102C51.3125 9.57472 51.2625 9.82597 51.1655 10.0604C51.0684 10.2948 50.926 10.5078 50.7466 10.6872C50.5672 10.8666 50.3542 11.0089 50.1198 11.106C49.8854 11.2031 49.6342 11.2531 49.3804 11.2531H47.8051V13.9968H46.6619V10.1076H49.3782C49.4823 10.11 49.5857 10.091 49.6821 10.0517C49.7785 10.0123 49.8657 9.9535 49.9383 9.87892C50.0861 9.72991 50.169 9.52855 50.169 9.31872C50.169 9.10889 50.0861 8.9076 49.9383 8.75858C49.8657 8.68401 49.7785 8.62516 49.6821 8.58584C49.5857 8.54652 49.4823 8.52746 49.3782 8.52991H46.6642V7.38672L49.3804 7.38896Z" fill="white"/>
<path d="M57.2048 7.38672H58.348V13.9922H57.2048V11.2599H54.4428V13.9922H53.2996V7.38672H54.4428V10.1053H57.2048V7.38672Z" fill="white"/>
<path d="M61.4736 13.9922H60.3303V7.38672H61.4736V13.9922Z" fill="white"/>
<path d="M72.1355 7.38672H73.3518L70.9484 13.9922H69.7322L67.3291 7.38672H68.5362L70.3288 12.3163L72.1355 7.38672Z" fill="white"/>
<path d="M79.9804 8.52991H75.3315V7.38672H79.9804V8.52991ZM79.196 11.2736H75.3315V10.1076H79.196V11.2736ZM79.9804 13.9945H75.3315V12.8513H79.9804V13.9945Z" fill="white"/>
<path d="M85.6848 7.38672H86.8279V13.9922H85.6848L83.1079 9.64801V13.9922H81.9648V7.38672H83.1079L85.6828 11.7309L85.6848 7.38672Z" fill="white"/>
<path d="M88.8035 7.38672H93.4591V8.52991H91.7052V13.9922H90.5621V8.52767H88.8082L88.8035 7.38672Z" fill="white"/>
<path d="M98.9459 7.38672H100.09V11.6555C100.099 11.9669 100.046 12.277 99.9337 12.5675C99.8211 12.858 99.6516 13.123 99.4354 13.3467C99.2184 13.5704 98.9588 13.7482 98.672 13.8697C98.3852 13.9911 98.0767 14.0537 97.7655 14.0537C97.4537 14.0537 97.1452 13.9911 96.8584 13.8697C96.5716 13.7482 96.312 13.5704 96.0957 13.3467C95.8788 13.123 95.7093 12.858 95.5967 12.5675C95.4842 12.277 95.4313 11.9669 95.4408 11.6555V7.38672H96.5845V11.6555C96.5838 11.8902 96.653 12.1199 96.7825 12.3153C96.9126 12.5106 97.0984 12.6629 97.3147 12.7528C97.5316 12.8427 97.7703 12.8662 98.0008 12.8202C98.2306 12.7742 98.4421 12.661 98.6076 12.4947C98.7194 12.3855 98.8069 12.2548 98.8659 12.1105C98.9249 11.9662 98.954 11.8113 98.9506 11.6555L98.9459 7.38672Z" fill="white"/>
<path d="M106.72 9.31782C106.723 9.67789 106.623 10.0313 106.43 10.3352C106.241 10.6369 105.974 10.8813 105.657 11.0418L106.72 13.9913H105.508L104.518 11.2658H102.076V10.1043H104.791C105 10.1043 105.201 10.021 105.35 9.8726C105.498 9.72426 105.582 9.52304 105.582 9.31321C105.582 9.10338 105.498 8.90216 105.35 8.75382C105.201 8.60548 105 8.52209 104.791 8.52209H102.076V7.37891H104.791C105.045 7.37857 105.296 7.4286 105.532 7.52603C105.766 7.62352 105.98 7.76643 106.159 7.94664C106.338 8.12691 106.48 8.34081 106.576 8.57613C106.673 8.81145 106.721 9.06352 106.72 9.31782Z" fill="white"/>
<path d="M113.351 8.52991H108.711V7.38672H113.351V8.52991ZM112.569 11.2736H108.711V10.1076H112.578L112.569 11.2736ZM113.351 13.9945H108.711V12.8513H113.351V13.9945Z" fill="white"/>
<path d="M118.063 10.1076C118.319 10.1028 118.573 10.1511 118.809 10.2496C119.045 10.3479 119.258 10.4942 119.435 10.6792C119.705 10.9502 119.89 11.2954 119.963 11.6709C120.038 12.0464 119.999 12.4356 119.852 12.7891C119.705 13.1427 119.457 13.4448 119.139 13.6573C118.82 13.8698 118.446 13.9832 118.063 13.9831H115.349V12.8399H118.063C118.168 12.8417 118.271 12.8224 118.368 12.7831C118.464 12.7438 118.552 12.6854 118.626 12.6112C118.774 12.4618 118.856 12.2601 118.856 12.0499C118.856 11.8397 118.774 11.638 118.626 11.4885C118.552 11.4144 118.464 11.356 118.368 11.3167C118.271 11.2774 118.168 11.2581 118.063 11.2599H117.281C116.768 11.2599 116.275 11.0559 115.912 10.6927C115.549 10.3295 115.344 9.83696 115.344 9.32333C115.344 8.8097 115.549 8.31709 115.912 7.95391C116.275 7.59072 116.768 7.38672 117.281 7.38672H119.609V8.52991H117.281C117.072 8.5335 116.872 8.61858 116.724 8.76719C116.576 8.91574 116.492 9.11607 116.49 9.32563C116.488 9.42902 116.507 9.5318 116.546 9.62746C116.585 9.72313 116.644 9.80957 116.719 9.88123C116.791 9.95513 116.877 10.0135 116.973 10.0528C117.069 10.0921 117.171 10.1115 117.275 10.1098L118.063 10.1076Z" fill="white"/>
<path d="M12.9759 2.73606C12.7393 2.845 12.5102 2.9695 12.29 3.10875C12.1849 3.17277 12.082 3.23908 11.9837 3.30538C11.8305 3.00586 11.1674 1.85807 10.0448 1.85807C9.72238 1.87864 8.24076 2.08671 7.80401 4.0439V4.05991C7.75147 4.2634 7.71486 4.48062 7.67601 4.70926C7.56855 5.33803 7.44733 6.0514 6.97404 6.7259C6.42828 7.46527 5.64275 7.99218 4.75164 8.21666C4.66247 8.08405 4.57329 7.95598 4.48641 7.83483C4.35609 7.65191 4.2349 7.48045 4.12973 7.30669V7.29062C4.10914 7.25864 4.09085 7.22663 4.07256 7.19462C4.15259 7.19462 5.40327 7.00485 6.04348 6.07426C6.34529 5.60554 6.4276 5.07509 6.52363 4.5172C6.5625 4.28855 6.60594 4.03247 6.66539 3.78782C7.15011 1.62256 8.75065 0.778864 9.97384 0.714844H10.0311C11.7436 0.714844 12.6833 2.20561 12.9759 2.73606ZM3.17857 8.7471C3.50552 9.20439 3.81648 9.64798 3.9148 10.2104C4.12058 11.3217 3.36605 12.3322 3.31575 12.3986L3.42321 12.4237H3.4415C3.63814 12.474 3.84392 12.5083 4.06113 12.5449C4.21204 12.57 4.36522 12.5975 4.51842 12.6295C4.99052 11.842 5.17552 10.9154 5.04202 10.007C4.90026 9.19523 4.48183 8.60533 4.11143 8.08405C3.97653 7.89428 3.85078 7.71591 3.74331 7.5353V7.52161C2.66183 5.82276 3.56726 4.63609 3.78219 4.39144C4.57558 3.59348 5.86056 3.93415 6.18066 4.03933C6.20353 3.92272 6.22868 3.81069 6.2584 3.68265C6.31728 3.42845 6.39368 3.17863 6.48705 2.93498C5.91087 2.75664 4.17316 2.36108 2.96135 3.60034L2.94306 3.61862C2.12451 4.5332 1.58949 6.25718 2.77844 8.12981C2.89276 8.34696 3.03909 8.55049 3.17857 8.7471ZM6.01375 13.6767C5.32782 13.2034 4.62588 13.0822 3.99711 12.9748C3.76847 12.9359 3.53982 12.8993 3.34548 12.8467H3.33175C1.36541 12.41 1.16649 10.9307 1.14592 10.606C1.14592 9.47876 2.28914 8.8134 2.59323 8.66025C2.52464 8.56194 2.46062 8.45903 2.3966 8.35388C2.25518 8.13496 2.13059 7.90567 2.02391 7.66791C1.49117 7.95144 -0.0178825 8.90032 0.000408977 10.6403V10.6655C0.0644293 11.8887 0.914987 13.4892 3.07339 13.9739C3.31804 14.0356 3.56269 14.0768 3.80276 14.1179C4.36066 14.2117 4.89111 14.3032 5.35754 14.6301C6.28813 15.2704 6.46876 16.5188 6.48019 16.6011L6.57621 16.5439H6.59222C6.76599 16.4387 6.9375 16.3152 7.11811 16.1895C7.24157 16.1026 7.36964 16.0112 7.50225 15.9219C7.28225 15.0232 6.75591 14.2293 6.01375 13.6767ZM9.29479 15.5927C8.48313 15.7345 7.89323 16.1529 7.37188 16.5233C7.18211 16.6582 7.00381 16.784 6.82313 16.8937H6.80943C5.11061 17.9752 3.92394 17.0697 3.67929 16.8548C2.87904 16.0615 3.222 14.7765 3.32718 14.4564C3.21057 14.4335 3.09854 14.4083 2.9705 14.3786C2.71556 14.3197 2.46498 14.2434 2.22055 14.1499C2.0422 14.7261 1.64893 16.4638 2.88819 17.6779L2.90419 17.6939C3.53716 18.2567 4.35511 18.5668 5.20207 18.5651C5.99319 18.5535 6.76443 18.3154 7.42449 17.8792C7.6394 17.7489 7.84293 17.6048 8.04184 17.463C8.49913 17.136 8.94042 16.8251 9.50516 16.7268C10.6164 16.521 11.627 17.2778 11.691 17.3259C11.691 17.2916 11.7115 17.255 11.7185 17.2184V17.2001C11.7688 17.0034 11.803 16.7954 11.8396 16.5736C11.8648 16.4273 11.8922 16.2741 11.9219 16.1163C11.1334 15.6424 10.2048 15.4573 9.29479 15.5927ZM15.8157 14.0562V14.0403C15.7128 13.8665 15.5871 13.695 15.4613 13.5144L15.1961 13.1325C14.3051 13.3559 13.5194 13.8821 12.9737 14.621C12.4981 15.3069 12.3769 16.0089 12.2717 16.6399C12.2329 16.8686 12.194 17.0835 12.1437 17.2893V17.303C11.707 19.2693 10.2277 19.4682 9.90299 19.4888C8.77805 19.4888 8.11269 18.3456 7.95723 18.0415C7.85893 18.1101 7.75832 18.1764 7.65086 18.2405C7.43154 18.3798 7.20232 18.5028 6.96489 18.6085C7.22788 19.1276 8.17445 20.6229 9.88238 20.6229H9.9396C11.1628 20.5589 12.7633 19.7083 13.2481 17.5499C13.3075 17.3053 13.3509 17.0606 13.3898 16.8228C13.4858 16.2626 13.575 15.7322 13.9043 15.2657C14.5445 14.3352 15.7951 14.1546 15.8752 14.1431C15.8569 14.1111 15.8363 14.0791 15.8157 14.0471V14.0562ZM17.1488 13.2171C17.0184 13.0022 16.8744 12.7987 16.7349 12.5998C16.4056 12.1425 16.097 11.7012 15.9987 11.1365C15.7929 10.0275 16.5474 9.01462 16.5977 8.95062L16.4879 8.92316H16.4719C16.2753 8.87516 16.0695 8.83855 15.8523 8.80201L15.395 8.71971C14.9222 9.50771 14.7387 10.4358 14.876 11.3445C15.0178 12.1562 15.4361 12.7461 15.8066 13.2674C15.9392 13.4572 16.0673 13.6355 16.1747 13.8162V13.8299C17.2562 15.5287 16.3508 16.7177 16.1358 16.96C15.3401 17.7603 14.0574 17.4173 13.7374 17.3121C13.7145 17.431 13.6894 17.5408 13.6596 17.6688C13.6018 17.924 13.5254 18.1747 13.431 18.4188C13.8608 18.5506 14.3075 18.6192 14.7571 18.6223C15.1641 18.6348 15.5694 18.564 15.9481 18.4143C16.3267 18.2645 16.6707 18.0388 16.9589 17.7511L16.9749 17.7351C17.8027 16.8091 18.3377 15.0828 17.1488 13.208V13.2171ZM19.9107 10.702C19.8467 9.47652 18.9961 7.87598 16.8378 7.39354C16.5931 7.33177 16.3462 7.29062 16.1084 7.2495C15.5482 7.15346 15.0201 7.0643 14.5536 6.73505C13.6231 6.09484 13.4401 4.84645 13.431 4.76413L13.3349 4.82358H13.3189C13.1452 4.92876 12.9714 5.05222 12.7908 5.18026L12.409 5.44321C12.6324 6.33178 13.1557 7.11598 13.8905 7.66337C14.565 8.13666 15.2784 8.25781 15.9072 8.36527C16.1358 8.40418 16.3645 8.44072 16.5566 8.49103H16.5726C18.5389 8.92778 18.7378 10.4071 18.7584 10.7318C18.7584 11.859 17.6151 12.522 17.3111 12.6775C17.3774 12.7758 17.4437 12.8765 17.5077 12.9839C17.6484 13.2032 17.7729 13.4325 17.8804 13.6698C18.4131 13.3886 19.9222 12.4374 19.9016 10.6975L19.9107 10.702ZM16.2342 4.48748C17.0321 5.28087 16.6915 6.56356 16.5862 6.88367C16.7029 6.90653 16.8149 6.93168 16.9429 6.9614C17.1974 7.01921 17.4473 7.09563 17.6906 7.19005C17.8713 6.61158 18.2645 4.87388 17.0252 3.66207L17.007 3.64606C16.0924 2.82523 14.3684 2.2902 12.4958 3.47915C12.2672 3.60948 12.0751 3.75352 11.8785 3.893C11.4212 4.22225 10.9776 4.53091 10.4151 4.63152C9.30625 4.83501 8.29337 4.08049 8.22706 4.03019C8.22706 4.06676 8.20876 4.10106 8.20191 4.13994V4.15594C8.1516 4.35486 8.1173 4.56293 8.07838 4.78243C8.05323 4.93104 8.02808 5.08424 7.99608 5.23971C8.78394 5.71084 9.71052 5.89502 10.6187 5.76102C11.4303 5.61926 12.0202 5.20085 12.5416 4.83044C12.7313 4.69783 12.9096 4.56978 13.0903 4.46232H13.104C14.8051 3.36483 15.9895 4.27026 16.2342 4.48748Z" fill="white"/>
</g>
<defs>
<clipPath id="clip0_703_20384">
<rect width="120" height="20.339" fill="white" transform="translate(0 0.5)"/>
</clipPath>
</defs>
</svg>
