<svg width="160" height="160" viewBox="0 0 160 160" fill="none" xmlns="http://www.w3.org/2000/svg">
<g clip-path="url(#clip0_1_22)">
<path d="M65.4219 131.896V134.376L60.2096 139.589C59.0697 140.729 57.5275 141.366 55.9182 141.366H40.8363C39.7855 141.366 38.925 140.505 38.925 139.454V131.896C38.925 130.845 39.7855 129.985 40.8363 129.985H63.5106C64.5615 129.985 65.4219 130.845 65.4219 131.896Z" fill="#2946A7" stroke="black" stroke-width="0.3"/>
<path d="M98.7617 139.589L93.5493 134.376V131.896C93.5493 130.845 94.4097 129.985 95.4606 129.985H118.135C119.186 129.985 120.046 130.845 120.046 131.896V139.454C120.046 140.505 119.186 141.366 118.135 141.366H103.053C101.444 141.366 99.9016 140.729 98.7617 139.589Z" fill="#2946A7" stroke="black" stroke-width="0.3"/>
<path d="M124.147 134.475H34.8243C27.2318 134.475 21.0823 128.325 21.0823 120.733V31.4102C21.0823 23.8177 27.2318 17.6682 34.8243 17.6682H124.147C131.74 17.6682 137.889 23.8177 137.889 31.4102V120.733C137.889 128.325 131.74 134.475 124.147 134.475Z" fill="#5C7FC0"/>
<path d="M124.147 17.6682H34.8243C27.2318 17.6682 21.0823 23.8178 21.0823 31.4102V39.3119C21.0823 31.7194 27.2318 25.5699 34.8243 25.5699H124.147C131.74 25.5699 137.889 31.7194 137.889 39.3119V31.4102C137.889 23.8178 131.74 17.6682 124.147 17.6682Z" fill="#5C7FC0"/>
<path d="M124.147 126.571H34.8243C27.2318 126.571 21.0823 120.422 21.0823 112.829V120.731C21.0823 128.323 27.2318 134.473 34.8243 134.473H124.147C131.74 134.473 137.889 128.323 137.889 120.731V112.829C137.889 120.422 131.74 126.571 124.147 126.571Z" fill="#5C7FC0"/>
<path d="M120.025 30.0333H38.947C35.9238 30.0333 33.4502 32.5069 33.4502 35.5301V38.2785C33.4502 35.2553 35.9238 33.8124 38.947 33.8124H120.025C123.048 33.8124 125.522 35.2553 125.522 38.2785V35.5301C125.522 32.4725 123.048 30.0333 120.025 30.0333Z" fill="#5C7FC0"/>
<path d="M120.025 117.642H38.947C35.9238 117.642 33.4502 115.168 33.4502 112.145V116.611C33.4502 119.634 35.9238 122.108 38.947 122.108H120.025C123.048 122.108 125.522 119.634 125.522 116.611V112.145C125.522 115.168 123.048 117.642 120.025 117.642Z" fill="#5C7FC0"/>
<path d="M38.947 122.105C35.9238 122.105 33.4502 119.631 33.4502 116.608V35.5301C33.4502 32.5069 35.9238 30.0333 38.947 30.0333H120.025C123.048 30.0333 125.522 32.5069 125.522 35.5301V116.608C125.522 119.631 123.048 122.105 120.025 122.105H38.947Z" fill="#5C7FC0" stroke="black" stroke-width="0.3" stroke-miterlimit="10" stroke-linecap="round" stroke-linejoin="round"/>
<path d="M124.834 102.696H124.147C123.391 102.696 122.773 102.078 122.773 101.322V49.102C122.773 48.3462 123.391 47.7278 124.147 47.7278H124.834C125.59 47.7278 126.208 48.3462 126.208 49.102V101.322C126.208 102.078 125.59 102.696 124.834 102.696Z" fill="#006FF2" stroke="black" stroke-width="0.3" stroke-miterlimit="10" stroke-linecap="round" stroke-linejoin="round"/>
<path d="M79.4859 98.403C91.819 98.403 101.817 88.4054 101.817 76.0722C101.817 63.7391 91.819 53.7415 79.4859 53.7415C67.1528 53.7415 57.1552 63.7391 57.1552 76.0722C57.1552 88.4054 67.1528 98.403 79.4859 98.403Z" fill="#21B5F5"/>
<path d="M79.4859 98.403C91.819 98.403 101.817 88.4054 101.817 76.0722C101.817 63.7391 91.819 53.7415 79.4859 53.7415C67.1528 53.7415 57.1552 63.7391 57.1552 76.0722C57.1552 88.4054 67.1528 98.403 79.4859 98.403Z" stroke="black" stroke-width="0.3" stroke-miterlimit="10" stroke-linecap="round" stroke-linejoin="round"/>
<path d="M97.8878 76.0711C97.8878 86.234 89.6489 94.4729 79.486 94.4729C69.3232 94.4729 61.0843 86.234 61.0843 76.0711C61.0843 65.9083 69.3232 57.6694 79.486 57.6694C89.6489 57.6694 97.8878 65.9083 97.8878 76.0711Z" fill="#21B5F5" stroke="black" stroke-width="0.3"/>
<path d="M79.4857 61.9865V90.1576" stroke="white" stroke-width="2" stroke-miterlimit="10" stroke-linecap="round" stroke-linejoin="round"/>
<path d="M93.5716 76.0718H65.4005" stroke="white" stroke-width="2" stroke-miterlimit="10" stroke-linecap="round" stroke-linejoin="round"/>
<path d="M89.449 66.1066L69.5231 86.0325" stroke="white" stroke-width="2" stroke-miterlimit="10" stroke-linecap="round" stroke-linejoin="round"/>
<path d="M89.449 86.0325L69.5231 66.1066" stroke="white" stroke-width="2" stroke-miterlimit="10" stroke-linecap="round" stroke-linejoin="round"/>
<path d="M33.4502 60.4387C31.9386 60.4387 30.7018 59.2019 30.7018 57.6903V49.4451C30.7018 47.9334 31.9386 46.6967 33.4502 46.6967C34.9618 46.6967 36.1986 47.9334 36.1986 49.4451V57.6903C36.1986 59.2019 34.9618 60.4387 33.4502 60.4387Z" fill="#006FF2"/>
<path d="M33.4502 105.446C31.9386 105.446 30.7018 104.209 30.7018 102.698V94.4523C30.7018 92.9406 31.9386 91.7039 33.4502 91.7039C34.9618 91.7039 36.1986 92.9406 36.1986 94.4523V102.698C36.1986 104.209 34.9618 105.446 33.4502 105.446Z" fill="#2946A7"/>
<path d="M33.4502 60.4387C31.9386 60.4387 30.7018 59.2019 30.7018 57.6903V49.4451C30.7018 47.9334 31.9386 46.6967 33.4502 46.6967C34.9618 46.6967 36.1986 47.9334 36.1986 49.4451V57.6903C36.1986 59.2019 34.9618 60.4387 33.4502 60.4387Z" stroke="black" stroke-width="0.3" stroke-miterlimit="10" stroke-linecap="round" stroke-linejoin="round"/>
<path d="M33.4502 105.446C31.9386 105.446 30.7018 104.209 30.7018 102.698V94.4523C30.7018 92.9406 31.9386 91.7039 33.4502 91.7039C34.9618 91.7039 36.1986 92.9406 36.1986 94.4523V102.698C36.1986 104.209 34.9618 105.446 33.4502 105.446Z" fill="#006FF2" stroke="black" stroke-width="0.3" stroke-miterlimit="10" stroke-linecap="round" stroke-linejoin="round"/>
<path d="M79.4856 84.6575C84.229 84.6575 88.0744 80.8121 88.0744 76.0687C88.0744 71.3253 84.229 67.48 79.4856 67.48C74.7422 67.48 70.8969 71.3253 70.8969 76.0687C70.8969 80.8121 74.7422 84.6575 79.4856 84.6575Z" fill="#21B5F5"/>
<path d="M79.486 83.9724C83.8501 83.9724 87.3877 80.4349 87.3877 76.0707C87.3877 71.7066 83.8501 68.1691 79.486 68.1691C75.1219 68.1691 71.5844 71.7066 71.5844 76.0707C71.5844 80.4349 75.1219 83.9724 79.486 83.9724Z" stroke="white" stroke-width="2" stroke-miterlimit="10" stroke-linecap="round" stroke-linejoin="round"/>
</g>
<defs>
<clipPath id="clip0_1_22">
<rect width="117" height="125" fill="white" transform="translate(21 17)"/>
</clipPath>
</defs>
</svg>
