<svg width="168" height="168" viewBox="0 0 168 168" fill="none" xmlns="http://www.w3.org/2000/svg">
<path d="M144.48 49.6086C144.48 49.0287 144.01 48.5586 143.43 48.5586H24.5695C23.9896 48.5586 23.5195 49.0287 23.5195 49.6086V142.584C23.5195 143.163 23.9896 143.634 24.5695 143.634H143.43C144.01 143.634 144.48 143.163 144.48 142.584V49.6086Z" fill="#21B5F5"/>
<path fill-rule="evenodd" clip-rule="evenodd" d="M120.288 79.9685L144.48 79.9685L144.48 112.225L120.288 112.225C116.011 112.225 111.909 110.525 108.884 107.501C105.86 104.476 104.16 100.374 104.16 96.0965C104.16 91.8191 105.86 87.7169 108.884 84.6923C111.909 81.6677 116.011 79.9685 120.288 79.9685Z" fill="#0A0B0D"/>
<path d="M108.193 48.5594C108.193 54.9755 105.644 61.1289 101.107 65.6658C96.5702 70.2027 90.4168 72.7515 84.0007 72.7515C77.5845 72.7515 71.4312 70.2027 66.8943 65.6658C62.3574 61.1289 59.8086 54.9755 59.8086 48.5594L108.193 48.5594Z" fill="#0A0B0D"/>
<path d="M59.8072 48.5588C59.8072 42.1427 62.356 35.9893 66.8929 31.4524C71.4298 26.9155 77.5832 24.3667 83.9993 24.3667C90.4155 24.3667 96.5688 26.9155 101.106 31.4524C105.643 35.9893 108.191 42.1427 108.191 48.5588L59.8072 48.5588Z" fill="#006FF2"/>
<path d="M119.589 86.4414C124.922 86.4414 129.245 90.7644 129.245 96.097C129.245 99.5678 127.414 102.611 124.665 104.313L120.555 96.097H125.383C125.383 92.8973 122.789 90.3037 119.589 90.3037C116.39 90.3037 113.796 92.8973 113.796 96.097C113.796 99.2967 116.39 101.89 119.589 101.89L121.434 105.577C120.837 105.692 120.22 105.753 119.589 105.753C114.257 105.753 109.934 101.43 109.934 96.097C109.934 90.7644 114.257 86.4414 119.589 86.4414Z" fill="#2AEDCA"/>
</svg>
