<svg width="168" height="168" viewBox="0 0 168 168" fill="none" xmlns="http://www.w3.org/2000/svg">
<path d="M143.131 48.9198C163.113 57.1455 172.644 80.0125 164.418 99.9947C156.192 119.977 133.325 129.507 113.343 121.282L77.1621 106.388L92.0561 70.2068C100.282 50.2246 123.149 40.6941 143.131 48.9198Z" fill="#006FF2"/>
<path d="M90.8387 61.6126L75.9448 97.7935C67.7191 117.776 44.8521 127.306 24.8699 119.081C4.88769 110.855 -4.64283 87.9878 3.58288 68.0056C11.8086 48.0234 34.6756 38.4929 54.6578 46.7186L90.8387 61.6126Z" fill="#21B5F5"/>
<circle cx="39.7636" cy="84.0005" r="25.9316" fill="#006FF2"/>
<circle cx="128.236" cy="85.1006" r="25.9316" fill="#DCF5FF"/>
<path d="M29.5625 82.786H49.9674M49.9674 82.786L42.2588 74.8511M49.9674 82.786L42.2588 90.9477" stroke="#2AEDCA" stroke-width="1.05"/>
<path d="M138.441 82.786H118.037M118.037 82.786L125.745 74.8511M118.037 82.786L125.745 90.9477" stroke="#010101" stroke-width="1.05"/>
</svg>
