<svg width="160" height="160" viewBox="0 0 160 160" fill="none" xmlns="http://www.w3.org/2000/svg">
<g clip-path="url(#clip0_1_22)">
<path d="M135.924 18.6341L135.647 18.3947L135.445 18.2108L131.92 15.0453C130.487 13.8469 128.68 13.1883 126.813 13.1839L29.7121 13.0896C27.6011 13.0904 25.5763 13.9267 24.08 15.4156C22.5837 16.9046 21.7374 18.9253 21.7262 21.0362L21.5805 126.111L25.1694 129.311L138.227 129.463L138.364 24.3824C138.364 23.3095 138.148 22.2475 137.729 21.2599C137.31 20.2723 136.696 19.3792 135.924 18.6341Z" stroke="black" stroke-width="0.3" stroke-miterlimit="10"/>
<path d="M33.2949 16.2656L130.397 16.3936C132.516 16.3964 134.547 17.2408 136.043 18.741C137.54 20.2412 138.379 22.2743 138.376 24.3931L138.238 129.456L25.1714 129.307L25.3099 24.2296C25.3127 22.1108 26.1571 20.0799 27.6573 18.5836C29.1575 17.0873 31.1906 16.2483 33.3094 16.2511L33.2949 16.2656Z" fill="#2946A7" stroke="black" stroke-width="0.3" stroke-linecap="round" stroke-linejoin="round"/>
<path d="M29.7098 13.0668L126.812 13.1948C128.931 13.1976 130.962 14.042 132.458 15.5422C133.955 17.0424 134.794 19.0755 134.791 21.1943L134.652 126.264L21.5863 126.115L21.7248 21.0381C21.7276 18.9192 22.572 16.8883 24.0722 15.3921C25.5724 13.8958 27.6055 13.0568 29.7243 13.0596L29.7098 13.0668Z" fill="#5C7FC0" stroke="black" stroke-width="0.3" stroke-miterlimit="10"/>
<path d="M134.667 118.386L21.5809 118.238L21.5712 135.408C21.5712 137.323 22.2597 139.175 23.511 140.626C23.9351 141.102 24.4142 141.526 24.9383 141.889L27.3124 144.031C27.5982 144.334 27.9079 144.613 28.2386 144.867L28.3074 144.938C29.6813 145.975 31.3554 146.537 33.0769 146.539L130.248 146.719C132.362 146.717 134.39 145.878 135.886 144.384C137.382 142.891 138.225 140.865 138.231 138.751L138.249 121.587L134.667 118.386Z" fill="#2946A7" stroke="black" stroke-width="0.3" stroke-linecap="round" stroke-linejoin="round"/>
<path d="M21.5862 118.233L134.638 118.382L134.625 135.552C134.623 137.671 133.778 139.702 132.278 141.198C130.778 142.694 128.745 143.533 126.626 143.531L29.5379 143.403C27.4191 143.4 25.3881 142.556 23.8919 141.055C22.3956 139.555 21.5566 137.522 21.5594 135.403L21.5717 118.233H21.5862Z" fill="#21B5F5" stroke="black" stroke-width="0.3" stroke-miterlimit="10"/>
<path d="M79.1088 138.623C83.3809 138.013 86.3502 134.057 85.7411 129.784C85.132 125.512 81.1751 122.543 76.9031 123.152C72.631 123.761 69.6616 127.718 70.2707 131.99C70.8798 136.262 74.8368 139.232 79.1088 138.623Z" fill="white" stroke="black" stroke-width="0.3" stroke-miterlimit="10"/>
<path d="M114.27 97.3426C114.277 94.497 112.668 91.8974 110.123 90.6486L89.0082 82.743C87.8873 82.1847 86.9449 81.3239 86.2878 80.2579C85.6306 79.192 85.2849 77.9634 85.2896 76.7111L85.3073 69.6585L72.8324 69.6273L72.8148 76.6623C72.8084 79.2311 71.3427 81.5692 69.0436 82.6882L47.7199 90.4925C46.4685 91.1021 45.4133 92.0508 44.6743 93.2305C43.9353 94.4102 43.5423 95.7736 43.5398 97.1656C43.5329 99.9214 62.2396 105.34 78.8845 105.381C95.5301 105.423 114.263 100.098 114.27 97.3426Z" fill="#21B5F5" stroke="black" stroke-width="0.3" stroke-linecap="round" stroke-linejoin="round"/>
<path d="M78.8186 85.0179L78.7676 105.406" stroke="black" stroke-width="0.3"/>
<path d="M69.4976 82.4033C72.2968 84.3289 80.1909 87.1108 88.6357 82.5273" stroke="black" stroke-width="0.3"/>
<path d="M88.7601 82.7278C87.6685 82.17 86.7028 81.2333 86.0628 80.168C85.4227 79.1028 85.1938 77.9395 85.1984 76.688L85.1082 69.5755L72.9589 69.5451L72.9413 76.5756C72.938 77.8864 72.5554 79.2352 71.8924 80.2957C76.0484 75.4933 85.9563 81.2977 88.7601 82.7278Z" fill="#006FF2"/>
<path d="M78.8435 75.0054C91.5968 75.0373 101.954 64.4152 101.987 51.2897C102.02 38.1642 91.7157 27.4904 78.9624 27.4585C66.2091 27.4266 55.8513 38.0487 55.8185 51.1742C55.7857 64.2997 66.0901 74.9735 78.8435 75.0054Z" fill="#006FF2" stroke="black" stroke-width="0.3"/>
<mask id="mask0_1_22" style="mask-type:alpha" maskUnits="userSpaceOnUse" x="55" y="27" width="47" height="48">
<path d="M101.687 51.289C101.655 64.2572 91.4236 74.7369 78.8442 74.7054C66.2649 74.6739 56.0861 64.1432 56.1185 51.175C56.1509 38.2067 66.3823 27.727 78.9616 27.7585C91.541 27.79 101.72 38.3207 101.687 51.289Z" fill="#006FF2" stroke="black" stroke-width="0.3"/>
</mask>
<g mask="url(#mask0_1_22)">
<path d="M69.9999 68.9271C87.5588 68.971 101.83 54.3757 101.875 36.3275C101.92 18.2794 87.7223 3.61282 70.1633 3.5689C52.6044 3.52498 38.3336 18.1203 38.2884 36.1685C38.2433 54.2166 52.441 68.8832 69.9999 68.9271Z" fill="#21B5F5"/>
</g>
</g>
<defs>
<clipPath id="clip0_1_22">
<rect width="118" height="135" fill="white" transform="translate(21 12)"/>
</clipPath>
</defs>
</svg>
