<svg width="168" height="168" viewBox="0 0 168 168" fill="none" xmlns="http://www.w3.org/2000/svg">
<rect x="24.6562" y="35.1436" width="120.688" height="92.9528" fill="#006FF2"/>
<rect x="32.7207" y="42.96" width="104.56" height="69.1846" fill="#21B5F5"/>
<path d="M74.1152 62.6381C74.1152 56.6253 78.9896 51.751 85.0023 51.751C91.0151 51.751 95.8895 56.6253 95.8895 62.6381V99.0534H74.1152V62.6381Z" fill="#006FF2"/>
<path d="M76.4922 62.6711C76.4922 57.9709 80.3025 54.1606 85.0027 54.1606C89.7029 54.1606 93.5132 57.9709 93.5132 62.6711V93.8239H76.4922V62.6711Z" fill="#21B5F5"/>
<rect x="65.252" y="68.1089" width="39.5005" height="30.946" fill="#006FF2"/>
<rect x="74.9199" y="75.3896" width="20.1649" height="16.3753" fill="#DCF5FF"/>
<path d="M83.1627 82.2299C82.5467 80.9612 83.4707 79.4854 84.881 79.4854C86.1779 79.4854 87.0978 80.75 86.6984 81.9838L86.181 83.5821L88.1702 87.6788H81.8301L83.8192 83.5821L83.1627 82.2299Z" fill="black"/>
<rect x="92.6016" y="81.1299" width="2.48426" height="1.9617" fill="#006FF2"/>
<rect x="74.9199" y="81.1299" width="2.48723" height="1.9617" fill="#006FF2"/>
<rect x="92.6016" y="84.0723" width="2.48426" height="1.9617" fill="#006FF2"/>
<rect x="74.9199" y="84.0723" width="2.48723" height="1.9617" fill="#006FF2"/>
<rect x="51.3867" y="143.498" width="65.2173" height="5.06181" fill="#21B5F5"/>
<circle cx="83.9962" cy="120.608" r="3.20908" fill="#2AEDCA"/>
</svg>
