<svg width="160" height="160" viewBox="0 0 160 160" fill="none" xmlns="http://www.w3.org/2000/svg">
<g clip-path="url(#clip0_1_22)">
<path opacity="0.32" d="M112.723 141.506H46.3876C45.2023 141.506 44.2146 140.518 44.2146 139.333C44.2146 138.148 45.2023 137.16 46.3876 137.16H112.723C113.908 137.16 114.896 138.148 114.896 139.333C114.896 140.518 113.908 141.506 112.723 141.506Z" fill="#1C1C1C"/>
<path d="M149.07 98.6371H10V24.2029C10 20.7656 12.7656 18 16.2028 18H142.67C146.186 18 149.07 20.8841 149.07 24.4004V98.6371Z" fill="#5C7FC0"/>
<path d="M12.3711 92.713V23.968C12.3711 21.9926 13.9514 20.4122 15.9269 20.4122H143.145C145.12 20.4122 146.7 21.9926 146.7 23.968V92.713C146.7 94.6885 145.12 96.2688 143.145 96.2688H15.9269C13.991 96.2688 12.3711 94.6489 12.3711 92.713Z" fill="#5C7FC0"/>
<path d="M149.07 98.6371H10V24.2029C10 20.7656 12.7656 18 16.2028 18H142.67C146.186 18 149.07 20.8841 149.07 24.4004V98.6371Z" stroke="black" stroke-width="0.3" stroke-miterlimit="10" stroke-linecap="round" stroke-linejoin="round"/>
<path d="M141.013 88.705C141.013 89.7268 140.185 90.555 139.163 90.555H19.8962C18.8745 90.555 18.0462 89.7268 18.0462 88.705V27.9109C18.0462 26.8892 18.8745 26.0609 19.8962 26.0609H139.163C140.185 26.0609 141.013 26.8892 141.013 27.9109V88.705Z" fill="#21B5F5" stroke="black" stroke-width="0.3"/>
<path d="M142.631 117.602H16.2426C12.8054 117.602 10.0002 114.797 10.0002 111.36V98.6378H149.071V111.162C149.071 114.678 146.187 117.602 142.631 117.602Z" fill="#5C7FC0"/>
<path d="M16.5575 114.758C14.8586 114.758 13.4758 113.375 13.4758 111.676V100.258H146.225V111.479C146.225 113.296 144.763 114.758 142.946 114.758H16.5575Z" fill="#5C7FC0"/>
<path d="M142.631 117.602H16.2426C12.8054 117.602 10.0002 114.797 10.0002 111.36V98.6378H149.071V111.162C149.071 114.678 146.187 117.602 142.631 117.602Z" stroke="black" stroke-width="0.3" stroke-miterlimit="10" stroke-linecap="round" stroke-linejoin="round"/>
<path d="M100.475 131.823H58.5959L64.7988 117.6H94.2722L100.475 131.823Z" fill="#2946A7"/>
<path d="M100.475 131.823H58.5959L64.7988 117.6H94.2722L100.475 131.823Z" stroke="black" stroke-width="0.3" stroke-miterlimit="10" stroke-linecap="round" stroke-linejoin="round"/>
<path d="M108.377 138.146H50.6941L51.2867 136.052C51.9979 133.563 54.3289 131.824 57.0155 131.824H102.055C104.742 131.824 107.112 133.563 107.784 136.052L108.377 138.146Z" fill="#2946A7"/>
<path d="M108.377 138.146H50.6941L51.2867 136.052C51.9979 133.563 54.3289 131.824 57.0155 131.824H102.055C104.742 131.824 107.112 133.563 107.784 136.052L108.377 138.146Z" stroke="black" stroke-width="0.3" stroke-miterlimit="10" stroke-linecap="round" stroke-linejoin="round"/>
<path d="M77.5919 108.079C77.5919 105.927 79.3153 104.187 81.4613 104.16C81.7626 105.946 83.2972 107.281 85.1461 107.281H85.1504C85.2191 107.281 85.2816 107.281 85.3497 107.271C85.4036 107.528 85.4307 107.79 85.4307 108.079C85.4307 110.248 83.6804 111.998 81.5113 111.998C79.3421 111.998 77.5919 110.248 77.5919 108.079Z" fill="#E7F7F7" stroke="black" stroke-width="0.3"/>
<g opacity="0.38">
<path d="M88.741 74.5891H72.8585C72.5424 74.5891 72.2659 74.3125 72.2659 73.9964C72.2659 73.6804 72.5424 73.4038 72.8585 73.4038H88.741C89.057 73.4038 89.3336 73.6804 89.3336 73.9964C89.3336 74.3125 89.057 74.5891 88.741 74.5891Z" fill="#2946A7"/>
</g>
<path d="M78.35 73.4056H72.8583C72.5422 73.4056 72.2656 73.6822 72.2656 73.9983C72.2656 74.3143 72.5422 74.5909 72.8583 74.5909H78.35V73.4056Z" fill="white"/>
<path d="M59.1186 54.9382L59.2598 54.8632L59.1759 54.7271L58.2378 53.2044L58.159 53.0765L58.0313 53.1554L56.9408 53.8287L56.9684 52.6476L56.972 52.494H56.8185H54.9966H54.8431L54.8467 52.6476L54.8744 53.8287L53.7838 53.1554L53.6552 53.076L53.5768 53.2052L52.6523 54.7279L52.5699 54.8637L52.7101 54.9382L53.766 55.4992L52.7101 56.0601L52.5699 56.1346L52.6523 56.2704L53.5768 57.7931L53.6552 57.9223L53.7838 57.8429L54.8744 57.1696L54.8467 58.3508L54.8431 58.5043H54.9966H56.8185H56.972L56.9684 58.3508L56.9408 57.1696L58.0313 57.8429L58.159 57.9218L58.2378 57.794L59.1759 56.2712L59.2598 56.1351L59.1186 56.0601L58.0627 55.4992L59.1186 54.9382Z" fill="white" stroke="black" stroke-width="0.3"/>
<path d="M70.8803 54.9382L71.0215 54.8632L70.9376 54.7271L69.9995 53.2044L69.9208 53.0765L69.793 53.1554L68.7025 53.8287L68.7302 52.6476L68.7338 52.494H68.5802H66.7584H66.6048L66.6084 52.6476L66.6361 53.8287L65.5456 53.1554L65.417 53.076L65.3385 53.2052L64.414 54.7279L64.3316 54.8637L64.4719 54.9382L65.5277 55.4992L64.4719 56.0601L64.3316 56.1346L64.414 56.2704L65.3385 57.7931L65.417 57.9223L65.5456 57.8429L66.6361 57.1696L66.6084 58.3508L66.6048 58.5043H66.7584H68.5802H68.7338L68.7302 58.3508L68.7025 57.1696L69.793 57.8429L69.9208 57.9218L69.9995 57.794L70.9376 56.2712L71.0215 56.1351L70.8803 56.0601L69.8244 55.4992L70.8803 54.9382Z" fill="white" stroke="black" stroke-width="0.3"/>
<path d="M82.6423 54.9382L82.7835 54.8632L82.6996 54.7271L81.7615 53.2044L81.6827 53.0765L81.555 53.1554L80.4644 53.8287L80.4921 52.6476L80.4957 52.494H80.3422H78.5203H78.3668L78.3704 52.6476L78.398 53.8287L77.3075 53.1554L77.1789 53.076L77.1005 53.2052L76.176 54.7279L76.0935 54.8637L76.2338 54.9382L77.2897 55.4992L76.2338 56.0601L76.0935 56.1346L76.176 56.2704L77.1005 57.7931L77.1789 57.9223L77.3075 57.8429L78.398 57.1696L78.3704 58.3508L78.3668 58.5043H78.5203H80.3422H80.4957L80.4921 58.3508L80.4644 57.1696L81.555 57.8429L81.6827 57.9218L81.7615 57.794L82.6996 56.2712L82.7835 56.1351L82.6423 56.0601L81.5864 55.4992L82.6423 54.9382Z" fill="white" stroke="black" stroke-width="0.3"/>
<path d="M94.4042 54.9382L94.5454 54.8632L94.4616 54.7271L93.5234 53.2044L93.4447 53.0765L93.3169 53.1554L92.2264 53.8287L92.2541 52.6476L92.2577 52.494H92.1041H90.2823H90.1287L90.1323 52.6476L90.16 53.8287L89.0695 53.1554L88.9409 53.076L88.8625 53.2052L87.9379 54.7279L87.8555 54.8637L87.9958 54.9382L89.0516 55.4992L87.9958 56.0601L87.8555 56.1346L87.9379 56.2704L88.8625 57.7931L88.9409 57.9223L89.0695 57.8429L90.16 57.1696L90.1323 58.3508L90.1287 58.5043H90.2823H92.1041H92.2577L92.2541 58.3508L92.2264 57.1696L93.3169 57.8429L93.4447 57.9218L93.5234 57.794L94.4616 56.2712L94.5454 56.1351L94.4042 56.0601L93.3484 55.4992L94.4042 54.9382Z" fill="white" stroke="black" stroke-width="0.3"/>
<path d="M106.166 54.9382L106.307 54.8632L106.223 54.7271L105.285 53.2044L105.206 53.0765L105.079 53.1554L103.988 53.8287L104.016 52.6476L104.019 52.494H103.866H102.044H101.89L101.894 52.6476L101.922 53.8287L100.831 53.1554L100.703 53.076L100.624 53.2052L99.6997 54.7279L99.6172 54.8637L99.7575 54.9382L100.813 55.4992L99.7575 56.0601L99.6172 56.1346L99.6997 56.2704L100.624 57.7931L100.703 57.9223L100.831 57.8429L101.922 57.1696L101.894 58.3508L101.89 58.5043H102.044H103.866H104.019L104.016 58.3508L103.988 57.1696L105.079 57.8429L105.206 57.9218L105.285 57.794L106.223 56.2712L106.307 56.1351L106.166 56.0601L105.11 55.4992L106.166 54.9382Z" fill="white" stroke="black" stroke-width="0.3"/>
</g>
<defs>
<clipPath id="clip0_1_22">
<rect width="141" height="125" fill="white" transform="translate(9 17)"/>
</clipPath>
</defs>
</svg>
