<svg width="168" height="168" viewBox="0 0 168 168" fill="none" xmlns="http://www.w3.org/2000/svg">
<circle cx="83.9989" cy="83.9999" r="60.4813" fill="#21B5F5"/>
<mask id="mask0_2217_7586" style="mask-type:alpha" maskUnits="userSpaceOnUse" x="23" y="23" width="122" height="122">
<circle cx="83.9989" cy="83.9999" r="60.4813" fill="#21B5F5"/>
</mask>
<g mask="url(#mask0_2217_7586)">
<circle cx="83.9977" cy="81.5182" r="24.8395" fill="#2AEDCA"/>
<circle cx="83.9982" cy="81.5182" r="22.586" fill="#006FF2"/>
<circle cx="19.8937" cy="74.5221" r="20.4718" fill="#DCF5FF"/>
<circle cx="147.322" cy="75.7499" r="20.1557" fill="#DCF5FF"/>
<circle cx="83.9987" cy="152.312" r="42.8288" fill="#006FF2"/>
</g>
<path d="M74.508 85.516L74.6457 83.3845L72.8611 84.5797L72.123 83.2798L74.0453 82.3435L72.123 81.4071L72.8611 80.1072L74.6457 81.3025L74.508 79.1709H75.9896L75.8464 81.3025L77.631 80.1072L78.369 81.4071L76.4523 82.3435L78.369 83.2798L77.631 84.5797L75.8464 83.3845L75.9896 85.516H74.508Z" fill="#2AEDCA"/>
<path d="M83.2628 85.516L83.4005 83.3845L81.616 84.5797L80.8779 83.2798L82.8002 82.3435L80.8779 81.4071L81.616 80.1072L83.4005 81.3025L83.2628 79.1709H84.7445L84.6013 81.3025L86.3858 80.1072L87.1239 81.4071L85.2071 82.3435L87.1239 83.2798L86.3858 84.5797L84.6013 83.3845L84.7445 85.516H83.2628Z" fill="#2AEDCA"/>
<path d="M92.0177 85.516L92.1554 83.3845L90.3708 84.5797L89.6328 83.2798L91.555 82.3435L89.6328 81.4071L90.3708 80.1072L92.1554 81.3025L92.0177 79.1709H93.4993L93.3561 81.3025L95.1407 80.1072L95.8788 81.4071L93.962 82.3435L95.8788 83.2798L95.1407 84.5797L93.3561 83.3845L93.4993 85.516H92.0177Z" fill="#2AEDCA"/>
<rect x="83.0703" y="117.062" width="3.00354" height="6.6043" fill="black"/>
</svg>
