<svg width="160" height="160" viewBox="0 0 160 160" fill="none" xmlns="http://www.w3.org/2000/svg">
<rect x="9.85724" y="28.0298" width="146.01" height="107.722" rx="7.94634" fill="#2946A7" stroke="black" stroke-width="0.3"/>
<rect x="3.15" y="24.15" width="148.291" height="107.722" rx="7.94634" fill="#5C7FC0" stroke="black" stroke-width="0.3"/>
<path d="M63.6643 108.428C63.6684 106.799 62.7473 105.311 61.291 104.596L49.2058 100.072C48.5642 99.7522 48.0249 99.2595 47.6488 98.6494C47.2726 98.0393 47.0747 97.3361 47.0775 96.6194L47.0876 92.5828L39.9476 92.5649L39.9375 96.5914C39.9338 98.0617 39.0949 99.3999 37.7791 100.04L25.5744 104.507C24.8582 104.856 24.2542 105.399 23.8313 106.074C23.4083 106.749 23.1834 107.53 23.182 108.327C23.178 109.904 33.8848 113.005 43.4115 113.029C52.9386 113.053 63.6604 110.005 63.6643 108.428Z" fill="#21B5F5" stroke="black" stroke-width="0.3" stroke-linecap="round" stroke-linejoin="round"/>
<path d="M43.374 101.374L43.3448 113.044" stroke="black" stroke-width="0.3"/>
<path d="M38.0391 99.8773C39.6414 100.979 44.1599 102.572 48.9936 99.9482" stroke="black" stroke-width="0.3"/>
<path d="M49.0645 100.064C48.4396 99.7443 47.8869 99.2081 47.5205 98.5984C47.1542 97.9887 47.0231 97.3228 47.0258 96.6064L46.9741 92.5353L40.02 92.5179L40.0099 96.5421C40.008 97.2924 39.789 98.0645 39.4095 98.6715C41.7884 95.9226 47.4596 99.245 49.0645 100.064Z" fill="#006FF2"/>
<path d="M43.3885 95.7073C50.7251 95.7256 56.6803 89.6156 56.6992 82.0696C56.7181 74.5236 50.7935 68.3839 43.4569 68.3655C36.1203 68.3472 30.1651 74.4572 30.1462 82.0032C30.1273 89.5492 36.0519 95.6889 43.3885 95.7073Z" fill="#006FF2" stroke="black" stroke-width="0.3"/>
<mask id="mask0_1_22" style="mask-type:alpha" maskUnits="userSpaceOnUse" x="30" y="68" width="27" height="28">
<path d="M56.3992 82.0688C56.3807 89.4576 50.5518 95.4252 43.3893 95.4073C36.2267 95.3893 30.4277 89.3927 30.4462 82.0039C30.4647 74.6152 36.2936 68.6476 43.4561 68.6655C50.6187 68.6834 56.4177 74.6801 56.3992 82.0688Z" fill="#006FF2" stroke="black" stroke-width="0.3"/>
</mask>
<g mask="url(#mask0_1_22)">
<ellipse cx="38.3738" cy="73.4602" rx="18.1969" ry="18.7039" transform="rotate(0.143311 38.3738 73.4602)" fill="#21B5F5"/>
</g>
<rect x="14.9946" y="51.1803" width="56.9456" height="70.8071" rx="4.57286" stroke="black" stroke-width="0.3"/>
<path d="M11.0963 24.646H147.921C152.309 24.646 155.867 28.2037 155.867 32.5924V45.4153H3.14997V32.5924C3.14997 28.2037 6.70767 24.646 11.0963 24.646Z" fill="#2946A7" stroke="black" stroke-width="0.3"/>
<path d="M11.0963 24.15H143.495C147.884 24.15 151.441 27.7077 151.441 32.0963V45.4154H3.15V32.0963C3.15 27.7077 6.7077 24.15 11.0963 24.15Z" fill="#21B5F5" stroke="black" stroke-width="0.3"/>
<path d="M129.786 29.1791V40.8821H127.312V29.1791H129.786Z" fill="white"/>
<path d="M135.97 40.8821H131.822V29.1791H136.005C137.182 29.1791 138.195 29.4134 139.045 29.882C139.894 30.3468 140.547 31.0153 141.005 31.8877C141.466 32.7601 141.696 33.8039 141.696 35.0192C141.696 36.2382 141.466 37.2859 141.005 38.1621C140.547 39.0383 139.89 39.7106 139.033 40.1792C138.18 40.6478 137.159 40.8821 135.97 40.8821ZM134.296 38.7621H135.867C136.599 38.7621 137.214 38.6325 137.713 38.3735C138.216 38.1106 138.593 37.7049 138.845 37.1563C139.1 36.604 139.227 35.8916 139.227 35.0192C139.227 34.1544 139.1 33.4477 138.845 32.8992C138.593 32.3506 138.218 31.9468 137.719 31.6877C137.22 31.4287 136.605 31.2991 135.873 31.2991H134.296V38.7621Z" fill="white"/>
<path d="M78.1863 67.3368H144.42" stroke="black" stroke-width="0.3"/>
<path d="M78.1863 83.2956H130.926" stroke="black" stroke-width="0.3"/>
<path d="M78.1863 99.2546H117.432" stroke="black" stroke-width="0.3"/>
<path d="M118.449 120.611L144.42 120.611" stroke="black" stroke-width="0.3"/>
<path d="M78.1863 113.079C78.1863 115.021 77.7037 116.85 76.852 118.452C74.9257 122.077 71.1112 124.545 66.7203 124.545C65.3651 124.545 64.0649 124.31 62.8581 123.879M75.2384 105.404C73.1398 103.076 70.1009 101.613 66.7203 101.613C60.3878 101.613 55.2542 106.747 55.2542 113.079C55.2542 115.499 56.0035 117.743 57.2828 119.593" stroke="black" stroke-width="0.3"/>
<path d="M68.9732 121.486C67.5497 121.867 66.1141 121.873 64.7716 121.563C61.7357 120.863 59.1766 118.551 58.314 115.332C58.0478 114.338 57.9647 113.339 58.0441 112.369M74.0216 117.817C75.3158 115.821 75.7915 113.305 75.1273 110.827C73.8833 106.184 69.111 103.429 64.4681 104.673C62.6943 105.148 61.196 106.138 60.091 107.44" stroke="black" stroke-width="0.3"/>
</svg>
